<svg width="44" height="55" viewBox="0 0 44 55" fill="none" xmlns="http://www.w3.org/2000/svg">
<path d="M23.7269 47.622C23.988 47.622 24.0199 47.7023 23.9187 48.0291C23.5244 49.2646 23.123 50.4965 22.7146 51.7248C22.6951 51.8004 22.6594 51.8707 22.61 51.931C22.5606 51.9912 22.4988 52.0398 22.4287 52.0735C22.3587 52.1072 22.2822 52.1251 22.2045 52.1259C22.1269 52.1267 22.05 52.1105 21.9793 52.0783C21.9095 52.0528 21.8459 52.0128 21.7924 51.9611C21.7389 51.9093 21.6967 51.8469 21.6686 51.7778C21.6405 51.7087 21.6271 51.6345 21.6292 51.5599C21.6314 51.4853 21.649 51.4119 21.6809 51.3445C22.0361 50.2733 22.3771 49.2021 22.7039 48.1308C22.8318 47.7238 22.8637 47.622 23.1195 47.5952H20.1997C20.3916 47.5952 20.4502 47.7291 20.3809 47.9487C20.1678 48.6022 19.9546 49.2503 19.7575 49.9037C19.5385 50.4271 19.4036 50.9821 19.3579 51.5481C19.3584 51.9985 19.4658 52.4424 19.671 52.8428C19.8763 53.2432 20.1736 53.5887 20.5382 53.8505C20.9028 54.1123 21.3243 54.283 21.7677 54.3483C22.211 54.4137 22.6635 54.3718 23.0875 54.2262C23.4846 54.0964 23.8458 53.8747 24.1419 53.5788C24.4381 53.283 24.6609 52.9213 24.7925 52.5229C25.3253 51.0553 25.7728 49.5609 26.2257 48.0719C26.311 47.788 26.4335 47.6541 26.6786 47.622H23.7269Z" fill="#82BC00"/>
<path d="M34.2284 23.3798C34.4584 22.5436 34.9161 21.7886 35.5498 21.1998C35.8058 20.9722 36.0744 20.7594 36.3543 20.5624C39.1941 19.5983 41.8368 16.8988 43.1635 13.1977C45.1615 7.6165 43.4246 1.8586 39.29 0.342804C35.1555 -1.173 30.1578 2.16391 28.1598 7.7397C26.8545 11.3765 27.1475 15.083 28.65 17.6433C28.8192 18.0826 28.9563 18.5337 29.0603 18.993C29.2119 19.6286 29.2119 20.2911 29.0603 20.9266C28.7299 22.1318 28.309 23.3155 27.9414 24.5099C27.9192 24.6324 27.8523 24.7422 27.7536 24.8175C27.655 24.8929 27.5319 24.9284 27.4086 24.917H34.0419C33.7968 24.8741 33.7542 24.7991 33.8608 24.5421C34.0032 24.1613 34.1259 23.7733 34.2284 23.3798ZM32.678 21.2373C32.2336 22.1639 31.8768 23.1305 31.6124 24.1243C31.282 25.1045 31.4206 24.9009 30.4775 24.9277H30.4082C30.2591 24.9277 30.1951 24.8902 30.2537 24.7188C30.4988 23.9904 30.7439 23.2619 30.9677 22.5281C31.2015 21.8109 31.35 21.0684 31.4099 20.316C31.8865 20.5701 32.3984 20.7506 32.9284 20.8516C32.8431 20.9695 32.7579 21.1034 32.678 21.2426V21.2373ZM32.8005 18.4628C29.8328 17.3915 28.7033 12.9298 30.2804 8.52706C31.623 4.77773 34.5108 2.25496 37.1695 2.25496C37.6325 2.25357 38.0923 2.33333 38.5281 2.49063C41.4958 3.56187 42.6254 8.02358 41.0483 12.4264C39.4712 16.8291 35.7682 19.5394 32.7845 18.4628H32.8005Z" fill="#8EBF25"/>
<path d="M35.8322 25.4954C35.2846 25.194 34.6801 25.0115 34.058 24.9598H24.0626C23.6364 24.9598 23.5937 24.8955 23.7323 24.4777C23.8708 24.06 24.0413 23.5618 24.1905 23.1012C24.5261 22.03 24.8405 20.9587 25.2028 19.9303C25.5963 18.8638 25.8176 17.7409 25.8581 16.6041C25.8581 15.6347 25.8581 14.6598 25.8581 13.6904C25.881 13.0062 25.749 12.3258 25.4721 11.7005C25.1952 11.0751 24.7807 10.5211 24.2597 10.0803C23.7703 9.59941 23.1707 9.24679 22.5139 9.05346C21.857 8.86013 21.163 8.83201 20.4928 8.97158C19.8068 9.0905 19.1871 9.45588 18.749 9.99973C18.311 10.5436 18.0843 11.2289 18.1112 11.9282C18.1112 12.5924 18.1112 13.2565 18.1112 13.9207C18.1304 15.711 17.4581 17.4391 16.2358 18.7413C14.9038 20.1928 13.6197 21.6872 12.3143 23.1655C11.1422 24.5045 9.97356 25.8275 8.8085 27.1344C8.65932 27.3058 8.60071 27.3004 8.51014 27.0755C8.44696 26.769 8.26761 26.4992 8.01005 26.3232C7.75249 26.1473 7.43694 26.079 7.13018 26.1328C5.44653 26.1328 3.75754 26.1703 2.07389 26.1328C1.89729 26.1291 1.72179 26.1615 1.55809 26.2283C1.3944 26.295 1.24595 26.3945 1.1218 26.5208C0.997644 26.6472 0.900398 26.7976 0.835997 26.9629C0.771596 27.1283 0.741388 27.3051 0.747218 27.4826C0.779186 32.4102 0.747218 37.3379 0.747218 42.2656C0.747218 42.3728 0.747218 42.4799 0.747218 42.587C0.761916 42.8389 0.864578 43.0774 1.0371 43.2607C1.20962 43.4439 1.44094 43.56 1.69029 43.5886C1.8595 43.6131 2.03199 43.5998 2.19556 43.5499C2.35913 43.4999 2.50977 43.4144 2.63684 43.2994C2.7639 43.1845 2.86431 43.0428 2.93091 42.8845C2.99751 42.7263 3.02871 42.5552 3.02229 42.3835C3.02229 37.895 3.02229 33.4047 3.02229 28.9127C3.02229 28.436 3.02228 28.4306 3.49114 28.4306C4.25838 28.4306 5.02561 28.4306 5.78751 28.4306C6.13383 28.4306 6.25638 28.5217 6.25638 28.8859C6.25638 34.2421 6.25638 39.584 6.25638 44.9116C6.25638 45.2544 6.14449 45.3615 5.80883 45.3561C4.6047 45.3561 3.4059 45.3561 2.20177 45.3561C2.0016 45.3544 1.80174 45.3724 1.60504 45.4097C1.38541 45.4584 1.18572 45.5731 1.0325 45.7387C0.879278 45.9042 0.779782 46.1126 0.747218 46.3363C0.71604 46.5789 0.762165 46.8252 0.878955 47.0398C0.995746 47.2544 1.17719 47.4263 1.39724 47.5308C1.67291 47.6329 1.96961 47.6642 2.26037 47.6218C3.90673 47.6218 5.55841 47.6218 7.20477 47.6218C7.38239 47.6383 7.56145 47.6153 7.72921 47.5543C7.89697 47.4934 8.04933 47.3961 8.17546 47.2693C8.30159 47.1425 8.3984 46.9893 8.459 46.8207C8.5196 46.652 8.54252 46.472 8.52612 46.2935C8.52612 44.3867 8.52612 42.4817 8.52612 40.5784C8.52612 37.4861 8.52612 34.3938 8.52612 31.3015C8.51411 31.0053 8.61949 30.7163 8.81915 30.4981C10.1369 29.0162 11.4512 27.5308 12.7619 26.0417C14.5947 23.9635 16.4435 21.8907 18.2604 19.7964C19.3566 18.5294 20.0473 16.9596 20.2424 15.2919C20.3484 14.1955 20.3787 13.0931 20.333 11.9925C20.3305 11.8781 20.3517 11.7646 20.3953 11.6589C20.4388 11.5533 20.5037 11.4579 20.5859 11.3788C20.6681 11.2997 20.7657 11.2387 20.8726 11.1996C20.9795 11.1604 21.0933 11.1441 21.2068 11.1515C21.8287 11.1677 22.4209 11.4225 22.8618 11.8638C23.3027 12.305 23.5589 12.8992 23.5778 13.5243C23.7774 15.897 23.4648 18.285 22.6613 20.5249C22.006 22.3085 21.4838 24.1403 20.9031 25.9507C20.8609 26.0739 20.8609 26.2078 20.9031 26.331C20.9634 26.6069 21.1243 26.8501 21.354 27.0126C21.5838 27.1752 21.8658 27.2454 22.1445 27.2094H32.6087C33.019 27.2094 33.4346 27.2094 33.8448 27.2094C34.112 27.1937 34.378 27.2562 34.6106 27.3893C34.8432 27.5224 35.0325 27.7203 35.1555 27.9593C35.2823 28.1752 35.348 28.4219 35.3455 28.6727C35.3429 28.9234 35.2723 29.1687 35.1413 29.3821C35.0102 29.5955 34.8236 29.7688 34.6017 29.8833C34.3798 29.9979 34.131 30.0493 33.8821 30.0321C33.5648 30.0291 33.2478 30.0506 32.9337 30.0964C32.7805 30.1227 32.6355 30.1848 32.5105 30.2779C32.3856 30.3709 32.2841 30.4922 32.2145 30.632C31.7669 31.4408 32.2731 32.271 33.2801 32.3406C33.6024 32.3522 33.9108 32.4757 34.1528 32.69C34.3948 32.9044 34.5555 33.1963 34.6076 33.5163C34.6597 33.8363 34.6 34.1645 34.4386 34.4453C34.2772 34.726 34.0241 34.9419 33.7223 35.0562C33.2993 35.1617 32.8621 35.1979 32.4276 35.1633C32.2257 35.1668 32.0286 35.2248 31.8567 35.3312C31.6849 35.4377 31.5447 35.5887 31.451 35.7685C31.3572 35.9482 31.3133 36.15 31.3239 36.3526C31.3345 36.5553 31.3992 36.7513 31.5112 36.9202C31.6208 37.0835 31.7683 37.2176 31.9409 37.3109C32.1136 37.4042 32.3062 37.4539 32.5022 37.4558C32.6921 37.4602 32.879 37.5047 33.0506 37.5865C33.2223 37.6683 33.3749 37.7855 33.4986 37.9305C33.6222 38.0755 33.7141 38.2451 33.7682 38.4281C33.8224 38.6112 33.8376 38.8036 33.8129 38.993C33.8015 39.1702 33.755 39.3434 33.6761 39.5023C33.5972 39.6612 33.4876 39.8027 33.3536 39.9185C33.2196 40.0342 33.0639 40.1219 32.8958 40.1764C32.7276 40.2308 32.5503 40.251 32.3743 40.2356C32.0327 40.2063 31.6886 40.2352 31.3567 40.3213C31.1054 40.3954 30.8884 40.5566 30.744 40.7762C30.5997 40.9958 30.5374 41.2597 30.5681 41.5211C30.5943 41.7703 30.704 42.0031 30.8793 42.1813C31.0545 42.3594 31.2849 42.4723 31.5325 42.5013C31.7413 42.5342 31.9477 42.5807 32.1505 42.6406C32.4669 42.7433 32.7336 42.9613 32.8983 43.2517C33.0629 43.5421 33.1136 43.8839 33.0403 44.2099C32.979 44.5526 32.7913 44.8594 32.5147 45.0689C32.2381 45.2784 31.893 45.3753 31.5485 45.3401H13.2947C12.5754 45.3401 11.8561 45.3401 11.1635 45.3776C11.0148 45.381 10.8685 45.4156 10.7339 45.4793C10.5994 45.5429 10.4796 45.6342 10.3822 45.7472C10.2849 45.8602 10.2121 45.9925 10.1687 46.1354C10.1252 46.2784 10.112 46.4289 10.1299 46.5774C10.134 46.7223 10.1665 46.865 10.2255 46.9972C10.2845 47.1295 10.3689 47.2488 10.4738 47.3483C10.5787 47.4478 10.7021 47.5255 10.8369 47.577C10.9717 47.6286 11.1152 47.6529 11.2594 47.6486C12.7193 47.6861 14.1791 47.6486 15.639 47.6486C17.0989 47.6486 18.6067 47.6486 20.0932 47.6486C20.1532 47.6382 20.2144 47.6382 20.2744 47.6486H23.0396C23.1708 47.6363 23.3028 47.6363 23.4339 47.6486H23.6097C23.6877 47.6413 23.7662 47.6413 23.8442 47.6486H26.6254C26.7054 47.6279 26.7879 47.6188 26.8705 47.6218C28.4262 47.6218 29.982 47.6218 31.5378 47.6218C32.1394 47.6392 32.7359 47.5058 33.2735 47.2337C33.8111 46.9616 34.2729 46.5594 34.6174 46.0632C34.9955 45.5527 35.2318 44.9504 35.302 44.3179C35.3722 43.6854 35.2739 43.0455 35.017 42.4638C34.9264 42.2335 34.66 42.0674 34.66 41.8264C34.66 41.5854 34.9797 41.4836 35.1395 41.2908C35.6699 40.7031 35.9962 39.9582 36.0692 39.168C36.1422 38.3779 35.9581 37.5853 35.5445 36.9094C35.517 36.8796 35.4964 36.8441 35.4841 36.8054C35.4717 36.7667 35.468 36.7257 35.4731 36.6854C35.4781 36.6451 35.4919 36.6064 35.5135 36.572C35.535 36.5376 35.5638 36.5083 35.5977 36.4863C36.2394 35.9342 36.6667 35.172 36.8041 34.3343C36.9415 33.4965 36.7804 32.6368 36.349 31.9068C36.1892 31.639 36.2371 31.4997 36.4556 31.2962C36.8609 30.9065 37.1718 30.4283 37.3642 29.8987C37.5565 29.369 37.6252 28.802 37.565 28.2414C37.5048 27.6809 37.3172 27.1417 37.0167 26.6655C36.7163 26.1894 36.311 25.7891 35.8322 25.4954Z" fill="#EE7700"/>
</svg>
